<?xml version="1.0" encoding="UTF-8" standalone="no"?>
<!-- Created with Inkscape (http://www.inkscape.org/) -->

<svg
   width="200"
   height="30"
   viewBox="0 0 52.916667 7.9375"
   version="1.1"
   id="svg8104"
   sodipodi:docname="powr_200_white.svg"
   inkscape:version="1.2.1 (9c6d41e410, 2022-07-14)"
   xmlns:inkscape="http://www.inkscape.org/namespaces/inkscape"
   xmlns:sodipodi="http://sodipodi.sourceforge.net/DTD/sodipodi-0.dtd"
   xmlns="http://www.w3.org/2000/svg"
   xmlns:svg="http://www.w3.org/2000/svg">
  <sodipodi:namedview
     id="namedview3519"
     pagecolor="#ffffff"
     bordercolor="#000000"
     borderopacity="0.25"
     inkscape:showpageshadow="2"
     inkscape:pageopacity="0.0"
     inkscape:pagecheckerboard="0"
     inkscape:deskcolor="#d1d1d1"
     showgrid="false"
     inkscape:zoom="7.1367947"
     inkscape:cx="177.46062"
     inkscape:cy="24.520812"
     inkscape:window-width="3440"
     inkscape:window-height="1369"
     inkscape:window-x="6008"
     inkscape:window-y="951"
     inkscape:window-maximized="1"
     inkscape:current-layer="text958-9" />
  <defs
     id="defs8101" />
  <g
     id="layer1"
     transform="translate(-6.5367684,-1.5535818)">
    <g
       aria-label="POWR Solutions"
       id="text958-9"
       style="font-size:16.9333px;fill:#1e0354;stroke-width:0.264583"
       transform="matrix(0.27702409,0,0,0.31121181,5.8163723,2.0076635)">
      <path
         d="M 39.646421,16.241283 V 4.3879734 h 5.418656 q 1.625597,0 2.793995,0.5249323 1.185331,0.5249323 1.828796,1.523997 0.643465,0.9821314 0.643465,2.3367954 0,1.3377309 -0.643465,2.3198619 -0.643465,0.982132 -1.828796,1.523997 -1.168398,0.524933 -2.793995,0.524933 h -3.555993 l 1.49013,-1.456264 v 4.555057 z m 3.352793,-4.199458 -1.49013,-1.54093 h 3.352793 q 1.049865,0 1.557864,-0.457199 0.524932,-0.4571995 0.524932,-1.2699979 0,-0.8297317 -0.524932,-1.2869308 -0.507999,-0.4571991 -1.557864,-0.4571991 h -3.352793 l 1.49013,-1.5409303 z"
         style="font-weight:800;font-family:Montserrat;-inkscape-font-specification:'Montserrat Ultra-Bold';fill:#ffffff"
         id="path10127" />
      <path
         d="m 58.10371,16.47835 q -1.422398,0 -2.624662,-0.457199 -1.202264,-0.4572 -2.099729,-1.286931 -0.880532,-0.846665 -1.371597,-1.964263 -0.491066,-1.117598 -0.491066,-2.455329 0,-1.3377303 0.491066,-2.4553281 0.491065,-1.1175978 1.371597,-1.9473295 0.897465,-0.846665 2.099729,-1.3038641 1.202264,-0.4571991 2.624662,-0.4571991 1.43933,0 2.624661,0.4571991 1.202264,0.4571991 2.082796,1.3038641 0.880532,0.8297317 1.371597,1.9473295 0.507999,1.1175978 0.507999,2.4553281 0,1.337731 -0.507999,2.472262 -0.491065,1.117598 -1.371597,1.94733 -0.880532,0.829731 -2.082796,1.286931 -1.185331,0.457199 -2.624661,0.457199 z m 0,-2.777062 q 0.677332,0 1.253064,-0.237066 0.592665,-0.237066 1.015998,-0.677332 0.440266,-0.457199 0.677332,-1.083731 0.253999,-0.626532 0.253999,-1.388531 0,-0.7789314 -0.253999,-1.3885302 Q 60.813038,8.2995657 60.372772,7.8592999 59.949439,7.4021008 59.356774,7.1650346 58.781042,6.9279684 58.10371,6.9279684 q -0.677332,0 -1.269998,0.2370662 -0.575732,0.2370662 -1.015998,0.6942653 -0.423332,0.4402658 -0.677332,1.0667979 -0.237066,0.6095988 -0.237066,1.3885302 0,0.761999 0.237066,1.388531 0.254,0.626532 0.677332,1.083731 0.440266,0.440266 1.015998,0.677332 0.592666,0.237066 1.269998,0.237066 z"
         style="font-weight:800;font-family:Montserrat;-inkscape-font-specification:'Montserrat Ultra-Bold';fill:#ffffff"
         id="path10129" />
      <path
         d="M 68.974896,16.241283 65.131036,4.3879734 H 68.58543 L 71.81969,14.649553 H 70.07556 L 73.479153,4.3879734 h 3.081861 l 3.217327,10.2615796 h -1.676397 l 3.33586,-10.2615796 h 3.200394 L 80.794339,16.241283 h -3.58986 L 74.461285,7.5206339 h 0.965198 l -2.861728,8.7206491 z"
         style="font-weight:800;font-family:Montserrat;-inkscape-font-specification:'Montserrat Ultra-Bold';fill:#ffffff"
         id="path10131" />
      <path
         d="M 85.840475,16.241283 V 4.3879734 h 5.418656 q 1.625597,0 2.793994,0.5249323 1.185331,0.5249323 1.828797,1.523997 0.643465,0.9821314 0.643465,2.3367954 0,1.3377309 -0.643465,2.3198619 -0.643466,0.965198 -1.828797,1.490131 -1.168397,0.507999 -2.793994,0.507999 h -3.555993 l 1.49013,-1.405464 v 4.555057 z m 7.332119,0 -2.946395,-4.317991 h 3.572927 l 2.963327,4.317991 z m -3.979326,-4.199458 -1.49013,-1.54093 h 3.352793 q 1.049865,0 1.557864,-0.457199 0.524932,-0.4571995 0.524932,-1.2699979 0,-0.8297317 -0.524932,-1.2869308 -0.507999,-0.4571991 -1.557864,-0.4571991 h -3.352793 l 1.49013,-1.5409303 z"
         style="font-weight:800;font-family:Montserrat;-inkscape-font-specification:'Montserrat Ultra-Bold';fill:#ffffff"
         id="path10133" />
      <path
         d="m 107.27804,16.444483 q -1.42239,0 -2.72626,-0.372533 -1.30386,-0.389465 -2.09973,-0.999064 l 0.93133,-2.065863 q 0.762,0.541866 1.79493,0.897465 1.04987,0.338666 2.11667,0.338666 0.8128,0 1.30386,-0.1524 0.508,-0.169333 0.74507,-0.457199 0.23706,-0.287866 0.23706,-0.660398 0,-0.474133 -0.37253,-0.745066 -0.37253,-0.287866 -0.98213,-0.457199 -0.6096,-0.186266 -1.35467,-0.338666 -0.72813,-0.169333 -1.47319,-0.406399 -0.72813,-0.237066 -1.33773,-0.609599 -0.6096,-0.372532 -0.99907,-0.9821312 -0.37253,-0.6095988 -0.37253,-1.5578636 0,-1.015998 0.54186,-1.8457297 0.5588,-0.846665 1.65947,-1.3377307 1.1176,-0.507999 2.79399,-0.507999 1.1176,0 2.20133,0.2709328 1.08373,0.2539995 1.91346,0.7789318 l -0.84666,2.0827959 q -0.82973,-0.4741324 -1.65946,-0.6942653 -0.82974,-0.2370662 -1.6256,-0.2370662 -0.79587,0 -1.30386,0.1862663 -0.508,0.1862663 -0.72814,0.4910657 -0.22013,0.2878661 -0.22013,0.677332 0,0.4571991 0.37253,0.7450652 0.37254,0.2709328 0.98213,0.4402658 0.6096,0.169333 1.33774,0.338666 0.74506,0.169333 1.47319,0.3894659 0.74507,0.2201329 1.35467,0.5926653 0.6096,0.372533 0.98213,0.982132 0.38946,0.609598 0.38946,1.54093 0,0.999065 -0.5588,1.828796 -0.55879,0.829732 -1.67639,1.337731 -1.10067,0.507999 -2.794,0.507999 z"
         style="fill:#ff65ff"
         id="path10135" />
      <path
         d="m 118.33549,16.37675 q -1.45626,0 -2.59079,-0.609599 -1.1176,-0.609599 -1.778,-1.659463 -0.64346,-1.066798 -0.64346,-2.421462 0,-1.371598 0.64346,-2.4214622 0.6604,-1.0667979 1.778,-1.6594634 1.13453,-0.6095988 2.59079,-0.6095988 1.43933,0 2.57387,0.6095988 1.13453,0.5926655 1.77799,1.6425301 0.64347,1.0498645 0.64347,2.4383955 0,1.354664 -0.64347,2.421462 -0.64346,1.049864 -1.77799,1.659463 -1.13454,0.609599 -2.57387,0.609599 z m 0,-2.167463 q 0.6604,0 1.18534,-0.304799 0.52493,-0.304799 0.82973,-0.863598 0.3048,-0.575732 0.3048,-1.354664 0,-0.795865 -0.3048,-1.354664 -0.3048,-0.5587992 -0.82973,-0.8635986 -0.52494,-0.3047994 -1.18534,-0.3047994 -0.66039,0 -1.18533,0.3047994 -0.52493,0.3047994 -0.84666,0.8635986 -0.3048,0.558799 -0.3048,1.354664 0,0.778932 0.3048,1.354664 0.32173,0.558799 0.84666,0.863598 0.52494,0.304799 1.18533,0.304799 z"
         style="fill:#ff65ff"
         id="path10137" />
      <path
         d="M 125.09189,16.241283 V 3.6767748 h 2.6416 V 16.241283 Z"
         style="fill:#ff65ff"
         id="path10139" />
      <path
         d="m 134.03268,16.37675 q -1.13453,0 -2.03199,-0.440266 -0.88053,-0.440266 -1.3716,-1.337731 -0.49106,-0.914398 -0.49106,-2.319862 V 7.131168 h 2.64159 v 4.758257 q 0,1.134531 0.47413,1.676397 0.49107,0.524932 1.3716,0.524932 0.6096,0 1.08373,-0.253999 0.47413,-0.270933 0.74507,-0.812799 0.27093,-0.558798 0.27093,-1.38853 V 7.131168 h 2.64159 v 9.110115 h -2.50612 v -2.506128 l 0.45719,0.728132 q -0.45719,0.948265 -1.35466,1.43933 -0.88053,0.474133 -1.9304,0.474133 z"
         style="fill:#ff65ff"
         id="path10141" />
      <path
         d="m 145.54734,16.37675 q -1.60867,0 -2.50613,-0.812799 -0.89747,-0.829731 -0.89747,-2.455328 V 5.1161053 h 2.6416 v 7.9586507 q 0,0.575733 0.3048,0.897465 0.3048,0.3048 0.82973,0.3048 0.62653,0 1.0668,-0.338666 l 0.7112,1.862663 q -0.4064,0.287866 -0.98213,0.440265 -0.5588,0.135467 -1.1684,0.135467 z m -4.80906,-7.0103864 v -2.031996 h 6.31612 v 2.031996 z"
         style="fill:#ff65ff"
         id="path10143" />
      <path
         d="M 149.18799,16.241283 V 7.131168 h 2.64159 v 9.110115 z m 1.32079,-10.3801125 q -0.72813,0 -1.18533,-0.4233325 -0.4572,-0.4233325 -0.4572,-1.0498646 0,-0.6265321 0.4572,-1.0498646 0.4572,-0.4233325 1.18533,-0.4233325 0.72814,0 1.18533,0.4063992 0.4572,0.3894659 0.4572,1.015998 0,0.6603987 -0.4572,1.1006645 -0.44026,0.4233325 -1.18533,0.4233325 z"
         style="fill:#ff65ff"
         id="path10145" />
      <path
         d="m 158.61984,16.37675 q -1.45626,0 -2.59079,-0.609599 -1.1176,-0.609599 -1.778,-1.659463 -0.64346,-1.066798 -0.64346,-2.421462 0,-1.371598 0.64346,-2.4214622 0.6604,-1.0667979 1.778,-1.6594634 1.13453,-0.6095988 2.59079,-0.6095988 1.43933,0 2.57386,0.6095988 1.13453,0.5926655 1.778,1.6425301 0.64347,1.0498645 0.64347,2.4383955 0,1.354664 -0.64347,2.421462 -0.64347,1.049864 -1.778,1.659463 -1.13453,0.609599 -2.57386,0.609599 z m 0,-2.167463 q 0.6604,0 1.18533,-0.304799 0.52494,-0.304799 0.82973,-0.863598 0.3048,-0.575732 0.3048,-1.354664 0,-0.795865 -0.3048,-1.354664 -0.30479,-0.5587992 -0.82973,-0.8635986 -0.52493,-0.3047994 -1.18533,-0.3047994 -0.6604,0 -1.18533,0.3047994 -0.52493,0.3047994 -0.84666,0.8635986 -0.3048,0.558799 -0.3048,1.354664 0,0.778932 0.3048,1.354664 0.32173,0.558799 0.84666,0.863598 0.52493,0.304799 1.18533,0.304799 z"
         style="fill:#ff65ff"
         id="path10147" />
      <path
         d="m 170.91343,6.9957016 q 1.08373,0 1.9304,0.4402658 0.86359,0.4233325 1.35466,1.3207974 0.49107,0.8805316 0.49107,2.2690622 v 5.215456 h -2.6416 v -4.809057 q 0,-1.100664 -0.49106,-1.6255966 -0.47414,-0.5249323 -1.35467,-0.5249323 -0.62653,0 -1.13453,0.2709328 -0.49107,0.2539995 -0.77893,0.7958651 -0.27093,0.541866 -0.27093,1.388531 v 4.504257 h -2.6416 V 7.131168 h 2.52306 v 2.5230617 l -0.47413,-0.7619985 q 0.49107,-0.9143982 1.40546,-1.4054639 0.9144,-0.4910657 2.0828,-0.4910657 z"
         style="fill:#ff65ff"
         id="path10149" />
      <path
         d="m 180.14208,16.37675 q -1.1684,0 -2.25213,-0.270933 -1.0668,-0.287866 -1.69333,-0.711199 l 0.88053,-1.896529 q 0.62654,0.389466 1.4732,0.643465 0.8636,0.237066 1.69333,0.237066 0.9144,0 1.28693,-0.220132 0.38947,-0.220133 0.38947,-0.609599 0,-0.321733 -0.3048,-0.474133 -0.28787,-0.169333 -0.77893,-0.253999 -0.49107,-0.08467 -1.08374,-0.169333 -0.57573,-0.08467 -1.16839,-0.220133 -0.59267,-0.1524 -1.08373,-0.440266 -0.49107,-0.287866 -0.79587,-0.778932 -0.28787,-0.491065 -0.28787,-1.2699972 0,-0.8635983 0.49107,-1.523997 0.508,-0.6603987 1.45626,-1.0329313 0.94827,-0.3894659 2.26907,-0.3894659 0.93133,0 1.89653,0.2031996 0.96519,0.2031996 1.60866,0.5926655 l -0.88053,1.8795963 q -0.6604,-0.3894659 -1.33773,-0.5249323 -0.6604,-0.1523997 -1.28693,-0.1523997 -0.88054,0 -1.28693,0.2370662 -0.4064,0.2370662 -0.4064,0.6095988 0,0.338666 0.28786,0.507999 0.3048,0.169333 0.79587,0.270933 0.49106,0.1016 1.0668,0.186266 0.59266,0.06773 1.18533,0.220133 0.59266,0.1524 1.06679,0.440266 0.49107,0.270933 0.79587,0.761998 0.3048,0.474133 0.3048,1.253065 0,0.846665 -0.508,1.507063 -0.508,0.643466 -1.4732,1.015998 -0.94826,0.372533 -2.31986,0.372533 z"
         style="fill:#ff65ff"
         id="path10151" />
    </g>
    <rect
       style="fill:#ffffff;fill-opacity:0;stroke:#ff65ff;stroke-width:0.591713;stroke-linejoin:round;stroke-dasharray:none;stroke-opacity:1;paint-order:normal"
       id="rect1848-7"
       width="2.6139796"
       height="2.5865574"
       x="10.378963"
       y="-5.5985689"
       ry="0"
       transform="matrix(0.74314133,0.66913449,-0.78102412,0.62450085,0,0)" />
    <path
       style="fill:#ffffff;fill-opacity:0;stroke:#c637a0;stroke-width:0.560202;stroke-linecap:round;stroke-linejoin:round;stroke-dasharray:none;stroke-opacity:1;paint-order:normal"
       d="M 10.293965,3.4421445 8.3092945,5.0608131 10.231178,6.8099592"
       id="path2887-3-2-1-9" />
    <path
       style="fill:#ffffff;fill-opacity:0;stroke:#c637a0;stroke-width:0.560202;stroke-linecap:round;stroke-linejoin:round;stroke-dasharray:none;stroke-opacity:1;paint-order:normal"
       d="m 13.784235,3.4563302 1.924167,1.7321474 -1.921883,1.6356667"
       id="path2887-3-2-1-9-2" />
  </g>
</svg>
