<?xml version="1.0" encoding="UTF-8"?>
<!-- Created with Inkscape (http://www.inkscape.org/) -->
<svg width="200" height="30" version="1.1" viewBox="0 0 52.917 7.9375" xmlns="http://www.w3.org/2000/svg">
 <g transform="translate(-6.5368 -1.5536)">
  <g transform="matrix(.27702 0 0 .31121 5.8164 2.0077)" stroke-width=".26458" aria-label="POWR Solutions">
   <path d="m39.646 16.241v-11.853h5.4187q1.6256 0 2.794.52493 1.1853.52493 1.8288 1.524.64346.98213.64346 2.3368 0 1.3377-.64346 2.3199-.64346.98213-1.8288 1.524-1.1684.52493-2.794.52493h-3.556l1.4901-1.4563v4.5551zm3.3528-4.1995-1.4901-1.5409h3.3528q1.0499 0 1.5579-.4572.52493-.4572.52493-1.27 0-.82973-.52493-1.2869-.508-.4572-1.5579-.4572h-3.3528l1.4901-1.5409z" fill="#190a4f"/>
   <path d="m58.104 16.478q-1.4224 0-2.6247-.4572-1.2023-.4572-2.0997-1.2869-.88053-.84666-1.3716-1.9643-.49107-1.1176-.49107-2.4553 0-1.3377.49107-2.4553.49106-1.1176 1.3716-1.9473.89746-.84666 2.0997-1.3039t2.6247-.4572q1.4393 0 2.6247.4572 1.2023.4572 2.0828 1.3039.88053.82973 1.3716 1.9473.508 1.1176.508 2.4553 0 1.3377-.508 2.4723-.49106 1.1176-1.3716 1.9473-.88053.82973-2.0828 1.2869-1.1853.4572-2.6247.4572zm0-2.7771q.67733 0 1.2531-.23707.59266-.23707 1.016-.67733.44027-.4572.67733-1.0837.254-.62653.254-1.3885 0-.77893-.254-1.3885-.23707-.62653-.67733-1.0668-.42333-.4572-1.016-.69427-.57573-.23707-1.2531-.23707t-1.27.23707q-.57573.23707-1.016.69427-.42333.44027-.67733 1.0668-.23707.6096-.23707 1.3885 0 .762.23707 1.3885.254.62653.67733 1.0837.44027.44027 1.016.67733.59267.23707 1.27.23707z" fill="#190a4f"/>
   <path d="m68.975 16.241-3.8439-11.853h3.4544l3.2343 10.262h-1.7441l3.4036-10.262h3.0819l3.2173 10.262h-1.6764l3.3359-10.262h3.2004l-3.8439 11.853h-3.5899l-2.7432-8.7206h.9652l-2.8617 8.7206z" fill="#190a4f"/>
   <path d="m85.84 16.241v-11.853h5.4187q1.6256 0 2.794.52493 1.1853.52493 1.8288 1.524.64346.98213.64346 2.3368 0 1.3377-.64346 2.3199-.64347.9652-1.8288 1.4901-1.1684.508-2.794.508h-3.556l1.4901-1.4055v4.5551zm7.3321 0-2.9464-4.318h3.5729l2.9633 4.318zm-3.9793-4.1995-1.4901-1.5409h3.3528q1.0499 0 1.5579-.4572.52493-.4572.52493-1.27 0-.82973-.52493-1.2869-.508-.4572-1.5579-.4572h-3.3528l1.4901-1.5409z" fill="#190a4f"/>
   <path d="m107.28 16.444q-1.4224 0-2.7263-.37253-1.3039-.38946-2.0997-.99906l.93133-2.0659q.762.54187 1.7949.89746 1.0499.33867 2.1167.33867.8128 0 1.3039-.1524.508-.16933.74507-.4572.23706-.28787.23706-.6604 0-.47413-.37253-.74507-.37253-.28787-.98213-.4572-.6096-.18627-1.3547-.33867-.72813-.16933-1.4732-.4064-.72813-.23707-1.3377-.6096-.6096-.37253-.99907-.98213-.37253-.6096-.37253-1.5579 0-1.016.54186-1.8457.5588-.84666 1.6595-1.3377 1.1176-.508 2.794-.508 1.1176 0 2.2013.27093 1.0837.254 1.9135.77893l-.84666 2.0828q-.82973-.47413-1.6595-.69427-.82974-.23707-1.6256-.23707-.79587 0-1.3039.18627-.508.18627-.72814.49107-.22013.28787-.22013.67733 0 .4572.37253.74507.37254.27093.98213.44027.6096.16933 1.3377.33867.74506.16933 1.4732.38947.74507.22013 1.3547.59267.6096.37253.98213.98213.38946.6096.38946 1.5409 0 .99906-.5588 1.8288-.55879.82973-1.6764 1.3377-1.1007.508-2.794.508z" fill="#ff65ff"/>
   <path d="m118.34 16.377q-1.4563 0-2.5908-.6096-1.1176-.6096-1.778-1.6595-.64346-1.0668-.64346-2.4215 0-1.3716.64346-2.4215.6604-1.0668 1.778-1.6595 1.1345-.6096 2.5908-.6096 1.4393 0 2.5739.6096 1.1345.59267 1.778 1.6425.64347 1.0499.64347 2.4384 0 1.3547-.64347 2.4215-.64346 1.0499-1.778 1.6595-1.1345.6096-2.5739.6096zm0-2.1675q.6604 0 1.1853-.3048.52493-.3048.82973-.8636.3048-.57573.3048-1.3547 0-.79586-.3048-1.3547-.3048-.5588-.82973-.8636-.52494-.3048-1.1853-.3048-.66039 0-1.1853.3048-.52493.3048-.84666.8636-.3048.5588-.3048 1.3547 0 .77893.3048 1.3547.32173.5588.84666.8636.52494.3048 1.1853.3048z" fill="#ff65ff"/>
   <path d="m125.09 16.241v-12.565h2.6416v12.565z" fill="#ff65ff"/>
   <path d="m134.03 16.377q-1.1345 0-2.032-.44027-.88053-.44027-1.3716-1.3377-.49106-.9144-.49106-2.3199v-5.1477h2.6416v4.7583q0 1.1345.47413 1.6764.49107.52493 1.3716.52493.6096 0 1.0837-.254.47413-.27093.74507-.8128.27093-.5588.27093-1.3885v-4.5043h2.6416v9.1101h-2.5061v-2.5061l.45719.72813q-.45719.94826-1.3547 1.4393-.88053.47413-1.9304.47413z" fill="#ff65ff"/>
   <path d="m145.55 16.377q-1.6087 0-2.5061-.8128-.89747-.82973-.89747-2.4553v-7.9925h2.6416v7.9587q0 .57573.3048.89746.3048.3048.82973.3048.62653 0 1.0668-.33867l.7112 1.8627q-.4064.28787-.98213.44026-.5588.13547-1.1684.13547zm-4.8091-7.0104v-2.032h6.3161v2.032z" fill="#ff65ff"/>
   <path d="m149.19 16.241v-9.1101h2.6416v9.1101zm1.3208-10.38q-.72813 0-1.1853-.42333t-.4572-1.0499.4572-1.0499 1.1853-.42333q.72814 0 1.1853.4064.4572.38947.4572 1.016 0 .6604-.4572 1.1007-.44026.42333-1.1853.42333z" fill="#ff65ff"/>
   <path d="m158.62 16.377q-1.4563 0-2.5908-.6096-1.1176-.6096-1.778-1.6595-.64346-1.0668-.64346-2.4215 0-1.3716.64346-2.4215.6604-1.0668 1.778-1.6595 1.1345-.6096 2.5908-.6096 1.4393 0 2.5739.6096 1.1345.59267 1.778 1.6425.64347 1.0499.64347 2.4384 0 1.3547-.64347 2.4215-.64347 1.0499-1.778 1.6595t-2.5739.6096zm0-2.1675q.6604 0 1.1853-.3048.52494-.3048.82973-.8636.3048-.57573.3048-1.3547 0-.79586-.3048-1.3547-.30479-.5588-.82973-.8636-.52493-.3048-1.1853-.3048t-1.1853.3048-.84666.8636q-.3048.5588-.3048 1.3547 0 .77893.3048 1.3547.32173.5588.84666.8636t1.1853.3048z" fill="#ff65ff"/>
   <path d="m170.91 6.9957q1.0837 0 1.9304.44027.86359.42333 1.3547 1.3208.49107.88053.49107 2.2691v5.2155h-2.6416v-4.8091q0-1.1007-.49106-1.6256-.47414-.52493-1.3547-.52493-.62653 0-1.1345.27093-.49107.254-.77893.79587-.27093.54187-.27093 1.3885v4.5043h-2.6416v-9.1101h2.5231v2.5231l-.47413-.762q.49107-.9144 1.4055-1.4055.9144-.49107 2.0828-.49107z" fill="#ff65ff"/>
   <path d="m180.14 16.377q-1.1684 0-2.2521-.27093-1.0668-.28787-1.6933-.7112l.88053-1.8965q.62654.38947 1.4732.64346.8636.23707 1.6933.23707.9144 0 1.2869-.22013.38947-.22013.38947-.6096 0-.32173-.3048-.47413-.28787-.16933-.77893-.254-.49107-.08467-1.0837-.16933-.57573-.08467-1.1684-.22013-.59267-.1524-1.0837-.44027-.49107-.28787-.79587-.77893-.28787-.49106-.28787-1.27 0-.8636.49107-1.524.508-.6604 1.4563-1.0329.94827-.38947 2.2691-.38947.93133 0 1.8965.2032.96519.2032 1.6087.59267l-.88053 1.8796q-.6604-.38947-1.3377-.52493-.6604-.1524-1.2869-.1524-.88054 0-1.2869.23707-.4064.23707-.4064.6096 0 .33867.28786.508.3048.16933.79587.27093.49106.1016 1.0668.18627.59266.06773 1.1853.22013.59266.1524 1.0668.44027.49107.27093.79587.762.3048.47413.3048 1.2531 0 .84666-.508 1.5071-.508.64347-1.4732 1.016-.94826.37253-2.3199.37253z" fill="#ff65ff"/>
  </g>
  <rect transform="matrix(.74314 .66913 -.78102 .6245 0 0)" x="10.379" y="-5.5986" width="2.614" height="2.5866" ry="0" fill-opacity="0" stroke="#ff65ff" stroke-linejoin="round" stroke-width=".59171" style="paint-order:normal"/>
  <path d="m10.294 3.4421-1.9847 1.6187 1.9219 1.7491" fill-opacity="0" stroke="#c637a0" stroke-linecap="round" stroke-linejoin="round" stroke-width=".5602" style="paint-order:normal"/>
  <path d="m13.784 3.4563 1.9242 1.7321-1.9219 1.6357" fill-opacity="0" stroke="#c637a0" stroke-linecap="round" stroke-linejoin="round" stroke-width=".5602" style="paint-order:normal"/>
 </g>
</svg>
